<svg width="58" height="58" viewBox="0 0 58 58" fill="none" xmlns="http://www.w3.org/2000/svg">
<path d="M28.9996 12.8585C27.0043 12.8585 25.0538 13.4502 23.3947 14.5587C21.7357 15.6673 20.4426 17.2429 19.6791 19.0863C18.9155 20.9297 18.7157 22.9582 19.105 24.9151C19.4942 26.8721 20.4551 28.6697 21.866 30.0806C23.2769 31.4915 25.0745 32.4523 27.0314 32.8416C28.9884 33.2308 31.0168 33.031 32.8603 32.2675C34.7037 31.5039 36.2793 30.2108 37.3878 28.5518C38.4964 26.8928 39.088 24.9423 39.088 22.947C39.088 20.2713 38.0251 17.7053 36.1332 15.8134C34.2412 13.9214 31.6752 12.8585 28.9996 12.8585Z" fill="black"/>
<path d="M28.9996 0.752319C23.4128 0.752319 17.9514 2.40901 13.3061 5.51291C8.66076 8.6168 5.04019 13.0285 2.90219 18.1901C0.764192 23.3516 0.204795 29.0313 1.29474 34.5108C2.38468 39.9903 5.075 45.0236 9.02551 48.9741C12.976 52.9246 18.0093 55.6149 23.4888 56.7048C28.9683 57.7948 34.6479 57.2354 39.8095 55.0974C44.9711 52.9594 49.3828 49.3388 52.4867 44.6935C55.5906 40.0482 57.2472 34.5868 57.2472 29C57.2387 21.5108 54.2599 14.3309 48.9643 9.0353C43.6687 3.73969 36.4887 0.760864 28.9996 0.752319ZM45.125 47.0099C45.0848 44.3633 44.0065 41.8385 42.1225 39.9794C40.2385 38.1203 37.6995 37.0757 35.0527 37.0707H22.9465C20.2997 37.0757 17.7608 38.1203 15.8767 39.9794C13.9927 41.8385 12.9145 44.3633 12.8742 47.0099C9.21529 43.7427 6.635 39.4412 5.47504 34.675C4.31508 29.9088 4.63016 24.9027 6.37857 20.3196C8.12698 15.7364 11.2262 11.7924 15.266 9.00984C19.3057 6.22725 24.0953 4.73731 29.0006 4.73731C33.9059 4.73731 38.6956 6.22725 42.7353 9.00984C46.775 11.7924 49.8743 15.7364 51.6227 20.3196C53.3711 24.9027 53.6862 29.9088 52.5262 34.675C51.3662 39.4412 48.7839 43.7427 45.125 47.0099Z" fill="black"/>
</svg>
