<svg width="18" height="15" viewBox="0 0 18 15" fill="none" xmlns="http://www.w3.org/2000/svg">
<path fill-rule="evenodd" clip-rule="evenodd" d="M15.4828 0.691638C15.6888 0.604963 15.9142 0.57507 16.1356 0.605069C16.357 0.635067 16.5663 0.723861 16.7417 0.862209C16.9172 1.00056 17.0523 1.1834 17.1331 1.39171C17.2139 1.60001 17.2374 1.82617 17.2012 2.04664L15.3112 13.5108C15.1278 14.6166 13.9145 15.2508 12.9003 14.7C12.052 14.2391 10.792 13.5291 9.65866 12.7883C9.09199 12.4175 7.35616 11.23 7.56949 10.385C7.75282 9.66247 10.6695 6.94747 12.3362 5.3333C12.9903 4.69914 12.692 4.3333 11.9195 4.91664C10.0003 6.36497 6.92116 8.56747 5.90282 9.18747C5.00449 9.73414 4.53616 9.82747 3.97616 9.73414C2.95449 9.56414 2.00699 9.30081 1.23366 8.97997C0.188657 8.54664 0.23949 7.10997 1.23282 6.69164L15.4828 0.691638Z" fill="black"/>
</svg>
